<svg xmlns="http://www.w3.org/2000/svg" version="1.1" xmlns:xlink="http://www.w3.org/1999/xlink" xmlns:svgjs="http://svgjs.dev/svgjs" width="2000" height="1500" viewBox="0 0 2000 1500"><rect width="2000" height="1500" fill="#000000"></rect><g transform="matrix(0.75,0,0,0.75,249.090909090909,418.01538264576993)"><svg viewBox="0 0 396 175" data-background-color="#7d4e38" preserveAspectRatio="xMidYMid meet" height="883" width="2000" xmlns="http://www.w3.org/2000/svg" xmlns:xlink="http://www.w3.org/1999/xlink"><g id="tight-bounds" transform="matrix(1,0,0,1,0.2400000000000091,0.22715445374143428)"><svg viewBox="0 0 395.52 174.54569109251713" height="174.54569109251713" width="395.52"><g><svg viewBox="0 0 395.52 174.54569109251713" height="174.54569109251713" width="395.52"><g transform="matrix(1,0,0,1,0,103.2249379264733)"><svg viewBox="0 0 395.52 71.32075316604383" height="71.32075316604383" width="395.52"><g id="textblocktransform"><svg viewBox="0 0 395.52 71.32075316604383" height="71.32075316604383" width="395.52" id="textblock"><g><svg viewBox="0 0 395.52 40.61370531004571" height="40.61370531004571" width="395.52"><g transform="matrix(1,0,0,1,0,0)"><svg width="395.52" viewBox="1.95 -33.9 426.51 43.8" height="40.61370531004571" data-palette-color="#ffffff"><path d="M24.2-9.8L24.2-9.8Q24.2-5.25 20.85-2.43 17.5 0.4 11.95 0.4L11.95 0.4Q6 0.4 2.25-1.7L2.25-1.7 2.25-9.45Q6.8-6.15 11.95-6.15L11.95-6.15Q13.7-6.15 14.85-7.08 16-8 16-9.5L16-9.5Q16-10 15.85-10.45 15.7-10.9 15.3-11.3 14.9-11.7 14.53-11.98 14.15-12.25 13.43-12.63 12.7-13 12.2-13.25 11.7-13.5 10.73-13.95 9.75-14.4 9.15-14.65L9.15-14.65Q5.9-16.15 3.93-18.35 1.95-20.55 1.95-24.2L1.95-24.2Q1.95-28.55 5.15-31.23 8.35-33.9 14-33.9L14-33.9Q19.05-33.9 22.7-32.2L22.7-32.2 22.7-25Q18.65-27.35 14.3-27.35L14.3-27.35Q12.35-27.35 11.33-26.55 10.3-25.75 10.3-24.5 10.3-23.25 11.55-22.28 12.8-21.3 15.3-20.2L15.3-20.2Q16.85-19.5 17.88-18.98 18.9-18.45 20.23-17.53 21.55-16.6 22.33-15.58 23.1-14.55 23.65-13.05 24.2-11.55 24.2-9.8ZM43.5-6.6L43.5-0.55Q41.65 0.25 38.5 0.25L38.5 0.25Q29.85 0.25 29.85-8.4L29.85-8.4 29.85-20 26.2-20 26.2-25.35 29.85-25.35 29.85-31.35 37.15-31.35 37.15-25.35 43.05-25.35 43.05-20 37.15-20 37.15-8.35Q37.15-7 37.92-6.3 38.7-5.6 39.95-5.6L39.95-5.6Q41.95-5.6 43.5-6.6L43.5-6.6ZM71.59-12.8L71.59-12.8Q71.59-7.05 68.32-3.33 65.05 0.4 59.2 0.4L59.2 0.4Q53.25 0.4 50-3.18 46.75-6.75 46.75-12.35L46.75-12.35Q46.75-18.2 50.15-21.98 53.55-25.75 59.2-25.75L59.2-25.75Q65.09-25.75 68.34-22.1 71.59-18.45 71.59-12.8ZM55.55-17.95Q54.35-15.9 54.35-12.65 54.35-9.4 55.57-7.33 56.8-5.25 59.25-5.25L59.25-5.25Q61.65-5.25 62.82-7.28 64-9.3 64-12.55L64-12.55Q64-20 59.15-20L59.15-20Q56.75-20 55.55-17.95ZM83.59-12.65L83.59 0 76.29 0 76.34-25.35 83.59-25.35 83.59-20.65Q84.29-22.85 85.92-24.18 87.54-25.5 89.69-25.5L89.69-25.5Q90.89-25.5 91.59-25.3L91.59-25.3 91.59-18.4Q90.39-18.95 88.84-18.95L88.84-18.95Q86.49-18.95 85.04-17.23 83.59-15.5 83.59-12.65L83.59-12.65ZM118.19-25.35L109.04-0.75Q105.09 9.9 96.99 9.9L96.99 9.9Q95.44 9.9 94.19 9.65L94.19 9.65 94.19 3.85Q94.99 4.05 95.89 4.05L95.89 4.05Q100.04 4.05 101.89-0.4L101.89-0.4 92.09-25.35 100.04-25.35 102.79-17.45Q103.84-14.4 104.52-12.2 105.19-10 105.34-9.3L105.34-9.3 105.49-8.6Q106.04-10.6 108.19-17.45L108.19-17.45 110.69-25.35 118.19-25.35ZM142.19-13.05L141.13 0 133.44 0 136.34-33.7 144.78-33.7 149.49-21.5Q150.69-18.45 151.53-15.9 152.38-13.35 152.63-12.3L152.63-12.3 152.88-11.3Q153.69-14.6 156.38-21.5L156.38-21.5 161.13-33.7 169.59-33.7 173.09 0 165.38 0 164.13-13.05 163.49-22.9Q162.19-19.15 159.88-13.05L159.88-13.05 155.13-0.35 150.59-0.35 145.88-13.05Q144.74-16.15 143.94-18.6 143.13-21.05 142.88-22L142.88-22 142.63-22.9Q142.63-19.35 142.19-13.05L142.19-13.05ZM187.88-5L187.88-5Q189.43-5 190.28-5.95 191.13-6.9 191.13-8.55L191.13-8.55 191.13-10.4 188.78-10.4Q186.93-10.4 185.93-9.6 184.93-8.8 184.93-7.55L184.93-7.55Q184.93-5 187.88-5ZM191.48 0L191.48-3.1Q189.88 0.15 185.18 0.15L185.18 0.15Q181.48 0.15 179.41-1.95 177.33-4.05 177.33-7.2L177.33-7.2Q177.33-10.85 180.01-12.88 182.68-14.9 187.93-14.9L187.93-14.9 191.13-14.9 191.13-16.65Q191.13-19.85 186.88-19.85L186.88-19.85Q182.78-19.85 179.28-17.55L179.28-17.55 179.28-24.1Q182.28-25.8 187.93-25.8L187.93-25.8Q193.33-25.8 195.98-23.48 198.63-21.15 198.63-16.25L198.63-16.25 198.63 0 191.48 0ZM227.63-16.45L227.63 0 220.33 0 220.33-15.1Q220.33-17.35 219.28-18.53 218.23-19.7 216.33-19.7L216.33-19.7Q214.33-19.7 213.01-18.13 211.68-16.55 211.68-13.4L211.68-13.4 211.68 0 204.38 0 204.38-25.35 211.68-25.35 211.68-21.05Q212.63-23.15 214.61-24.38 216.58-25.6 219.33-25.6L219.33-25.6Q223.23-25.6 225.43-23.28 227.63-20.95 227.63-16.45L227.63-16.45ZM242.68-5L242.68-5Q244.23-5 245.08-5.95 245.93-6.9 245.93-8.55L245.93-8.55 245.93-10.4 243.58-10.4Q241.73-10.4 240.73-9.6 239.73-8.8 239.73-7.55L239.73-7.55Q239.73-5 242.68-5ZM246.28 0L246.28-3.1Q244.68 0.15 239.98 0.15L239.98 0.15Q236.28 0.15 234.2-1.95 232.13-4.05 232.13-7.2L232.13-7.2Q232.13-10.85 234.8-12.88 237.48-14.9 242.73-14.9L242.73-14.9 245.93-14.9 245.93-16.65Q245.93-19.85 241.68-19.85L241.68-19.85Q237.58-19.85 234.08-17.55L234.08-17.55 234.08-24.1Q237.08-25.8 242.73-25.8L242.73-25.8Q248.13-25.8 250.78-23.48 253.43-21.15 253.43-16.25L253.43-16.25 253.43 0 246.28 0ZM282.68-25.35L282.68-2.45Q282.68 3.65 279.03 6.73 275.38 9.8 269.88 9.8L269.88 9.8Q264.53 9.8 260.53 7.9L260.53 7.9 260.53 0.45Q264.03 3.25 269.13 3.25L269.13 3.25Q272.43 3.25 273.93 1.85 275.43 0.45 275.43-2.55L275.43-2.55 275.43-4.25Q273.23-0.85 268.43-0.85L268.43-0.85Q264.23-0.85 261.2-3.95 258.18-7.05 258.18-13.15L258.18-13.15Q258.18-18.55 261.1-22.08 264.03-25.6 268.78-25.6L268.78-25.6Q273.28-25.6 275.43-22L275.43-22 275.43-25.35 282.68-25.35ZM265.78-13.1L265.78-13.1Q265.78-9.95 266.98-8.3 268.18-6.65 270.43-6.65L270.43-6.65Q272.78-6.65 274.1-8.43 275.43-10.2 275.43-12.7L275.43-12.7Q275.43-19.5 270.48-19.5L270.48-19.5Q268.28-19.5 267.03-17.8 265.78-16.1 265.78-13.1ZM308.32-7.55L308.32-1.45Q305.72 0.25 300.37 0.25L300.37 0.25Q294.12 0.25 290.65-3.38 287.17-7 287.17-12.7L287.17-12.7Q287.17-18.75 290.55-22.18 293.92-25.6 298.87-25.6L298.87-25.6Q303.97-25.6 306.92-22.63 309.87-19.65 309.87-13.75L309.87-13.75Q309.87-12.6 309.47-9.8L309.47-9.8 294.57-9.8Q295.32-7.7 297.17-6.55 299.02-5.4 301.62-5.4L301.62-5.4Q305.47-5.4 308.32-7.55L308.32-7.55ZM299.17-20.05L299.17-20.05Q297.42-20.05 296.07-18.78 294.72-17.5 294.27-15L294.27-15 303.07-15 303.07-15.6Q302.72-20.05 299.17-20.05ZM352.27-16.25L352.27 0 344.97 0 344.97-15.05Q344.97-17.2 344.12-18.45 343.27-19.7 341.67-19.7L341.67-19.7Q339.97-19.7 338.64-18.32 337.32-16.95 337.32-13.4L337.32-13.4 337.32 0 330.02 0 330.02-15.05Q330.02-17.2 329.17-18.45 328.32-19.7 326.72-19.7L326.72-19.7Q325.02-19.7 323.69-18.32 322.37-16.95 322.37-13.4L322.37-13.4 322.37 0 315.07 0 315.07-25.35 322.37-25.35 322.37-21.4Q324.47-25.6 329.52-25.6L329.52-25.6Q334.87-25.6 336.62-20.8L336.62-20.8Q337.47-23.05 339.47-24.33 341.47-25.6 344.17-25.6L344.17-25.6Q347.92-25.6 350.09-23.23 352.27-20.85 352.27-16.25L352.27-16.25ZM377.92-7.55L377.92-1.45Q375.32 0.25 369.97 0.25L369.97 0.25Q363.72 0.25 360.24-3.38 356.77-7 356.77-12.7L356.77-12.7Q356.77-18.75 360.14-22.18 363.52-25.6 368.47-25.6L368.47-25.6Q373.57-25.6 376.52-22.63 379.47-19.65 379.47-13.75L379.47-13.75Q379.47-12.6 379.07-9.8L379.07-9.8 364.17-9.8Q364.92-7.7 366.77-6.55 368.62-5.4 371.22-5.4L371.22-5.4Q375.07-5.4 377.92-7.55L377.92-7.55ZM368.77-20.05L368.77-20.05Q367.02-20.05 365.67-18.78 364.32-17.5 363.87-15L363.87-15 372.67-15 372.67-15.6Q372.32-20.05 368.77-20.05ZM407.91-16.45L407.91 0 400.61 0 400.61-15.1Q400.61-17.35 399.56-18.53 398.51-19.7 396.61-19.7L396.61-19.7Q394.61-19.7 393.29-18.13 391.96-16.55 391.96-13.4L391.96-13.4 391.96 0 384.66 0 384.66-25.35 391.96-25.35 391.96-21.05Q392.91-23.15 394.89-24.38 396.86-25.6 399.61-25.6L399.61-25.6Q403.51-25.6 405.71-23.28 407.91-20.95 407.91-16.45L407.91-16.45ZM428.46-6.6L428.46-0.55Q426.61 0.25 423.46 0.25L423.46 0.25Q414.81 0.25 414.81-8.4L414.81-8.4 414.81-20 411.16-20 411.16-25.35 414.81-25.35 414.81-31.35 422.11-31.35 422.11-25.35 428.01-25.35 428.01-20 422.11-20 422.11-8.35Q422.11-7 422.89-6.3 423.66-5.6 424.91-5.6L424.91-5.6Q426.91-5.6 428.46-6.6L428.46-6.6Z" opacity="1" transform="matrix(1,0,0,1,0,0)" fill="#ffffff" class="wordmark-text-0" data-fill-palette-color="primary" id="text-0"></path></svg></g></svg></g><g transform="matrix(1,0,0,1,110.95403594680221,50.20162640482006)"><svg viewBox="0 0 173.61192810639557 21.119126761223768" height="21.119126761223768" width="173.61192810639557"><g transform="matrix(1,0,0,1,0,0)"><svg width="173.61192810639557" viewBox="5.35 -42.3 450.85999999999996 54.849999999999994" height="21.119126761223768" data-palette-color="#ffffff"><path d="M25.2-19.25Q32-17.05 32-10.25L32-10.25Q32-5.05 28.88-2.53 25.75 0 18.45 0L18.45 0 5.35 0 5.35-37.9 18.45-37.9Q25.1-37.9 27.8-35.4 30.5-32.9 30.5-27.75L30.5-27.75Q30.5-24.7 29.23-22.58 27.95-20.45 25.2-19.25L25.2-19.25ZM10.2-33.8L10.2-21.05 18.45-21.05Q25.5-21.05 25.55-27.4L25.55-27.4Q25.55-30.9 24-32.35 22.45-33.8 18.45-33.8L18.45-33.8 10.2-33.8ZM27.05-10.55Q27.05-13.9 24.88-15.43 22.7-16.95 18.45-16.95L18.45-16.95 10.2-16.95 10.2-4.1 18.45-4.1Q23.15-4.1 25.1-5.65 27.05-7.2 27.05-10.55L27.05-10.55ZM58.2-27.65L62.9-27.65 62.9 0 58.2 0 58.2-2.95Q54.1 0.6 49.75 0.6L49.75 0.6Q44.65 0.6 42.17-2.1 39.7-4.8 39.7-10.95L39.7-10.95 39.7-27.65 44.4-27.65 44.4-10.95Q44.4-7.05 45.72-5.4 47.05-3.75 50.4-3.75L50.4-3.75Q54.3-3.75 58.2-7.15L58.2-7.15 58.2-27.65ZM71.9-32.85L71.9-40.4 76.6-40.4 76.6-32.85 71.9-32.85ZM71.9 0L71.9-27.65 76.6-27.65 76.6 0 71.9 0ZM92.64 0.65Q88.89 0.65 87.24-0.85 85.59-2.35 85.59-5.9L85.59-5.9 85.59-42.3 90.29-42.3 90.29-7.15Q90.29-5.15 90.92-4.42 91.54-3.7 93.29-3.7L93.29-3.7Q94.69-3.7 95.79-4L95.79-4 95.79 0.3Q93.79 0.65 92.64 0.65L92.64 0.65ZM120.14-42.3L124.84-42.3 124.84 0 120.14 0 120.14-2.5Q116.19 0.85 112.14 0.85L112.14 0.85Q106.54 0.85 103.19-2.9 99.84-6.65 99.84-13.8L99.84-13.8Q99.84-20.95 103.19-24.7 106.54-28.45 112.14-28.45L112.14-28.45Q116.14-28.45 120.14-25.05L120.14-25.05 120.14-42.3ZM112.74-3.5Q116.34-3.5 120.14-6.6L120.14-6.6 120.14-20.95Q116.44-24.05 112.74-24.05L112.74-24.05Q108.79-24.05 106.77-21.45 104.74-18.85 104.74-13.8L104.74-13.8Q104.74-8.75 106.77-6.13 108.79-3.5 112.74-3.5L112.74-3.5ZM156.44 0.85Q149.19 0.85 143.49-1.85L143.49-1.85 143.49-6.45Q149.24-3.4 156.44-3.4L156.44-3.4Q160.59-3.4 162.51-5.15 164.44-6.9 164.44-9.75L164.44-9.75Q164.44-12.45 162.66-13.8 160.89-15.15 157.44-16.15L157.44-16.15 154.04-17.1Q151.14-17.95 149.09-19.05 147.04-20.15 145.66-22.23 144.29-24.3 144.29-27.65L144.29-27.65Q144.29-33 147.41-35.8 150.54-38.6 156.29-38.6L156.29-38.6Q159.64-38.6 162.19-37.98 164.74-37.35 167.49-36.1L167.49-36.1 167.49-31.6Q162.39-34.35 156.29-34.35L156.29-34.35Q152.59-34.35 150.89-32.63 149.19-30.9 149.19-27.9L149.19-27.9Q149.24-25.15 150.86-23.85 152.49-22.55 155.94-21.55L155.94-21.55 159.39-20.6Q162.44-19.75 164.56-18.63 166.69-17.5 168.01-15.38 169.34-13.25 169.34-9.85L169.34-9.85Q169.29-4.9 165.86-2.02 162.44 0.85 156.44 0.85L156.44 0.85ZM189.03-22.95L182.63-22.95 182.63-7.15Q182.63-5.15 183.26-4.42 183.88-3.7 185.58-3.7L185.58-3.7Q187.08-3.7 188.78-4.1L188.78-4.1 188.78 0.15Q186.53 0.65 184.78 0.65L184.78 0.65Q180.98 0.65 179.46-0.9 177.93-2.45 177.93-6.1L177.93-6.1 177.93-22.95 174.33-22.95 174.33-27.3 177.93-27.3 177.93-36.8 182.63-36.8 182.63-27.3 189.03-27.3 189.03-22.95ZM207.58 0.85Q203.18 0.85 200.11-1.07 197.03-3 195.48-6.33 193.93-9.65 193.93-13.8L193.93-13.8Q193.93-17.95 195.48-21.28 197.03-24.6 200.11-26.53 203.18-28.45 207.58-28.45L207.58-28.45Q211.98-28.45 215.06-26.53 218.13-24.6 219.66-21.28 221.18-17.95 221.18-13.8L221.18-13.8Q221.18-9.65 219.66-6.33 218.13-3 215.06-1.07 211.98 0.85 207.58 0.85L207.58 0.85ZM207.58-3.4Q211.73-3.4 214.01-6.3 216.28-9.2 216.28-13.8L216.28-13.8Q216.28-18.4 214.01-21.28 211.73-24.15 207.58-24.15L207.58-24.15Q203.43-24.15 201.13-21.28 198.83-18.4 198.83-13.8L198.83-13.8Q198.83-9.2 201.13-6.3 203.43-3.4 207.58-3.4L207.58-3.4ZM241.53-28.25L242.68-28.25 242.68-23.85 241.53-23.85Q237.23-23.85 233.18-20.4L233.18-20.4 233.18 0 228.48 0 228.48-27.65 233.18-27.65 233.18-24.55Q237.28-28.25 241.53-28.25L241.53-28.25ZM266.18-27.65L270.93-27.65 258.68 4.45Q257.38 7.85 256.33 9.5 255.28 11.15 253.85 11.85 252.43 12.55 249.93 12.55L249.93 12.55Q248.48 12.55 246.98 12.15L246.98 12.15 246.98 7.9Q248.28 8.2 249.58 8.2L249.58 8.2Q251.28 8.2 252.25 7.2 253.23 6.2 254.38 3.25L254.38 3.25 255.68-0.1 245.18-27.65 250.08-27.65 258.03-6.25 266.18-27.65ZM319.97-27.65L324.87-27.65 316.37 0.45 311.32 0.45 304.47-20.75 297.67 0.45 292.62 0.45 284.07-27.65 288.97-27.65 295.17-5.7 301.77-27.65 307.17-27.65 313.82-5.7 319.97-27.65ZM330.52-32.85L330.52-40.4 335.22-40.4 335.22-32.85 330.52-32.85ZM330.52 0L330.52-27.65 335.22-27.65 335.22 0 330.52 0ZM356.27-22.95L349.87-22.95 349.87-7.15Q349.87-5.15 350.49-4.42 351.12-3.7 352.82-3.7L352.82-3.7Q354.32-3.7 356.02-4.1L356.02-4.1 356.02 0.15Q353.77 0.65 352.02 0.65L352.02 0.65Q348.22 0.65 346.69-0.9 345.17-2.45 345.17-6.1L345.17-6.1 345.17-22.95 341.57-22.95 341.57-27.3 345.17-27.3 345.17-36.8 349.87-36.8 349.87-27.3 356.27-27.3 356.27-22.95ZM376.01-28.25Q381.11-28.25 383.59-25.55 386.06-22.85 386.06-16.65L386.06-16.65 386.06 0 381.36 0 381.36-16.65Q381.36-20.55 380.04-22.2 378.71-23.85 375.36-23.85L375.36-23.85Q371.46-23.85 367.56-20.45L367.56-20.45 367.56 0 362.86 0 362.86-42.3 367.56-42.3 367.56-24.7Q371.61-28.25 376.01-28.25L376.01-28.25ZM424.06-27.65L428.76-27.65 428.76 0 424.06 0 424.06-2.95Q419.96 0.6 415.61 0.6L415.61 0.6Q410.51 0.6 408.03-2.1 405.56-4.8 405.56-10.95L405.56-10.95 405.56-27.65 410.26-27.65 410.26-10.95Q410.26-7.05 411.58-5.4 412.91-3.75 416.26-3.75L416.26-3.75Q420.16-3.75 424.06-7.15L424.06-7.15 424.06-27.65ZM446.16 0.85Q443.11 0.85 440.76 0.35 438.41-0.15 435.86-1.35L435.86-1.35 435.86-6Q440.61-3.35 446.16-3.35L446.16-3.35Q448.96-3.35 450.18-4.48 451.41-5.6 451.41-7.45L451.41-7.45Q451.41-9.25 450.43-10.1 449.46-10.95 447.26-11.55L447.26-11.55 444.01-12.35Q440.51-13.2 438.51-15.05 436.51-16.9 436.51-20.5L436.51-20.5Q436.51-24.25 438.96-26.35 441.41-28.45 446.16-28.45L446.16-28.45Q448.61-28.45 450.71-27.98 452.81-27.5 454.91-26.65L454.91-26.65 454.91-22.25Q452.86-23.2 450.86-23.73 448.86-24.25 446.31-24.25L446.31-24.25Q443.66-24.25 442.48-23.23 441.31-22.2 441.31-20.65L441.31-20.65Q441.31-18.95 442.33-18.07 443.36-17.2 445.31-16.7L445.31-16.7 448.61-15.95Q451.11-15.35 452.73-14.45 454.36-13.55 455.28-11.93 456.21-10.3 456.21-7.6L456.21-7.6Q456.21-3.55 453.48-1.35 450.76 0.85 446.16 0.85L446.16 0.85Z" opacity="1" transform="matrix(1,0,0,1,0,0)" fill="#ffffff" class="slogan-text-1" data-fill-palette-color="secondary" id="text-1"></path></svg></g></svg></g></svg></g></svg></g><g transform="matrix(1,0,0,1,144.6179527851267,0)"><svg viewBox="0 0 106.2840944297466 93.63701683169896" height="93.63701683169896" width="106.2840944297466"><g><svg xmlns="http://www.w3.org/2000/svg" xmlns:xlink="http://www.w3.org/1999/xlink" version="1.1" x="0" y="0" viewBox="6.3 11.5 87.4 77" style="enable-background:new 0 0 100 100;" xml:space="preserve" height="93.63701683169896" width="106.2840944297466" class="icon-icon-0" data-fill-palette-color="accent" id="icon-0"><path d="M72.3 12.3L72.3 12.3 72.3 12.3l-0.4-0.8H28.2L6.3 50l21.8 38.5h43.7L93.7 50 72.3 12.3zM33.3 25.3L9.9 47.7l18.6-32.8L33.3 25.3zM70.7 14.8l6.4 35.7L36.9 25.8 70.7 14.8zM35.5 27.3l41 25.2-41 23.3V27.3zM77 54.5l-7.2 30.8-32.6-8.1L77 54.5zM33.5 75L9.9 50.5l23.6-22.7V75zM33.2 77.6l-4.6 7.7L11.5 55.1 33.2 77.6zM35 78.6l31.4 7.9H30.2L35 78.6zM79.3 53.3l11.6-2.5L72.1 84 79.3 53.3zM90.7 48.9l-11.4 2.5-5.9-33.1L90.7 48.9zM35 24.3l-5-10.8h38.2L35 24.3z" fill="#ffffff" data-fill-palette-color="accent"></path></svg></g></svg></g><g></g></svg></g><defs></defs></svg><rect width="395.52" height="174.54569109251713" fill="none" stroke="none" visibility="hidden"></rect></g></svg></g></svg>